<svg xmlns="http://www.w3.org/2000/svg" xmlns:xlink="http://www.w3.org/1999/xlink" width="65" height="65"><defs><filter id="b" width="177.8%" height="177.7%" x="-38.9%" y="-28.6%" filterUnits="objectBoundingBox"><feOffset dy="4" in="SourceAlpha" result="shadowOffsetOuter1"/><feGaussianBlur in="shadowOffsetOuter1" result="shadowBlurOuter1" stdDeviation="4"/><feColorMatrix in="shadowBlurOuter1" values="0 0 0 0 0 0 0 0 0 0 0 0 0 0 0 0 0 0 0.25 0"/></filter><rect id="a" width="65" height="65" x="0" y="0" rx="16"/><path id="c" d="M49.625 42.063A2.377 2.377 0 0 1 52 44.437v2.376a2.377 2.377 0 0 1-2.375 2.374h-14.25A2.377 2.377 0 0 1 33 46.813v-2.376a2.377 2.377 0 0 1 2.375-2.374Zm-3.86 2.671a.888.888 0 0 0-.89.891c0 .494.397.89.89.89.494 0 .891-.396.891-.89a.888.888 0 0 0-.89-.89Zm2.97 0a.888.888 0 0 0-.891.891c0 .494.397.89.89.89.494 0 .891-.396.891-.89a.888.888 0 0 0-.89-.89ZM19.72 36.913a1.44 1.44 0 0 1-.152 1.868L30 43.23v3.26L17.426 41.1A2.348 2.348 0 0 1 16 38.937c0-.756.367-1.468.985-1.912l.643-.462a1.5 1.5 0 0 1 2.093.35Zm29.904-4.35A2.377 2.377 0 0 1 52 34.937v2.376a2.377 2.377 0 0 1-2.375 2.374h-14.25A2.377 2.377 0 0 1 33 37.313v-2.376a2.377 2.377 0 0 1 2.375-2.374Zm-29.904-3.65a1.44 1.44 0 0 1-.152 1.868L30 35.23v3.26L17.426 33.1A2.348 2.348 0 0 1 16 30.937c0-.756.367-1.468.985-1.912l.643-.462a1.5 1.5 0 0 1 2.093.35Zm26.045 6.321a.888.888 0 0 0-.891.891c0 .494.397.89.89.89.494 0 .891-.396.891-.89a.888.888 0 0 0-.89-.89Zm2.672 0a.888.888 0 0 0-.891.891c0 .494.397.89.89.89.494 0 .891-.396.891-.89a.888.888 0 0 0-.89-.89ZM32 15c.531 0 1.006.108 1.55.318l13.081 5.606A2.255 2.255 0 0 1 48 23c0 .906-.538 1.719-1.369 2.075L33.55 30.681c-.544.213-1.019.319-1.55.319a3.888 3.888 0 0 1-1.55-.319l-13.081-5.606a2.256 2.256 0 0 1 0-4.15l13.081-5.607A3.93 3.93 0 0 1 32 15Zm0 3c-.181 0-.306.026-.369.076L20.141 23l11.49 4.925c.063.05.188.075.369.075.125 0 .25-.025.369-.075L43.856 23 32.37 18.076A.95.95 0 0 0 32 18Z"/></defs><g fill="none"><g fill-rule="nonzero"><use xlink:href="#a" fill="#000"/><use xlink:href="#a" fill="#2196F3"/></g><use xlink:href="#c" fill="#000" filter="url(#b)"/><use xlink:href="#c" fill="#FFF"/></g></svg>